# xmcd
#
# Track frame offsets: 
#        150
#        10586
#        21912
#        32588
#        48798
#        62135
#        74875
#        87441
#        97474
#        105603
#        115303
#        123875
#        135545
#        146492
#        155884
#        165647
#        175441
#        187701
#        198383
#        208078
#        224539
#        240345
#        257497
#        276886
#
# Disc length: 3877 seconds
#
# Revision: 0
# Processed by: cddbd v1.5.2PL0 Copyright (c) Steve Scherf et al.
# Submitted via: ExactAudioCopy v0.95b4
#
DISCID=620f2318
DTITLE=Johnny Seay - The Good Years
DYEAR=2000
DGENRE=Country
TTITLE0=Three Six Packs, Two Arms And A Juke Box
TTITLE1=My Baby Walks All Over Me
TTITLE2=My Old Faded Rose
TTITLE3=Willie's Drunk And Nellie's Dyin'
TTITLE4=Behind My Baby's Bedroom Door
TTITLE5=Nothin's Bad As Bein' Lonely
TTITLE6=Everybody's Friend
TTITLE7=Everyday
TTITLE8=Why Can't I Just Come Home And You Be Gone
TTITLE9=Standing Room Only
TTITLE10=Mystery Train
TTITLE11=There's Another Man
TTITLE12=Hitchin' And Hikin'
TTITLE13=If It Weren't For Hard Luck, (I'd Have No Luck At All)
TTITLE14=It's A Shame
TTITLE15=It Won't Be Easy To Forget
TTITLE16=Mary Rocks Him To Sleep
TTITLE17=If
TTITLE18=Fort Worth Girl
TTITLE19=Tecumseh Valley
TTITLE20=Strawberry Roan
TTITLE21=In The Early Morning Rain
TTITLE22=Ballad Of The Tarantula Express
TTITLE23=The Brazos River Song
EXTD=
EXTT0=
EXTT1=
EXTT2=
EXTT3=
EXTT4=
EXTT5=
EXTT6=
EXTT7=
EXTT8=
EXTT9=
EXTT10=
EXTT11=
EXTT12=
EXTT13=
EXTT14=
EXTT15=
EXTT16=
EXTT17=
EXTT18=
EXTT19=
EXTT20=
EXTT21=
EXTT22=
EXTT23=
PLAYORDER=
